<svg xmlns="http://www.w3.org/2000/svg" width="1180" height="620" viewBox="0 0 1180 620" font-family="'Noto Sans CJK TC','PingFang TC','Microsoft JhengHei','Heiti TC',sans-serif">
<rect width="1180" height="620" rx="26" fill="#14171c"/>
<rect x="40" y="20" width="1100" height="30" rx="6" fill="none"/>
<text x="590" y="42" fill="#8b95a3" font-size="20" text-anchor="middle">① 世界地圖 — 移動</text>
<rect x="150" y="70" width="880" height="480" rx="6" fill="#0a0c10" stroke="#2a2f37"/><rect x="158" y="120" width="864" height="422" fill="#2f9e3f"/><rect x="158" y="120" width="864" height="60" fill="#1f7a30"/><path d="M 590 214 q 60 80 0 160 q -60 80 0 150" stroke="#3a6bd6" stroke-width="26" fill="none" opacity="0.85"/><circle cx="519" cy="334" r="13" fill="#fff"/><circle cx="519" cy="334" r="7" fill="#e8821e"/><text x="517" y="314" fill="#fff" font-size="13" text-anchor="middle" font-weight="400">英雄</text><rect x="158" y="78" width="864" height="34" rx="4" fill="#1b2740" stroke="#e8821e"/><text x="170" y="101" fill="#ffd479" font-size="16" text-anchor="start" font-weight="400">選項   操作說明   剩餘天數:600</text><g opacity="0.8"><rect x="974" y="80" width="44" height="36" rx="8" fill="#000" stroke="#ffffff" stroke-width="2"/><rect x="985" y="90" width="22" height="3" rx="1.5" fill="#ffffff"/><rect x="985" y="97" width="22" height="3" rx="1.5" fill="#ffffff"/><rect x="985" y="104" width="22" height="3" rx="1.5" fill="#ffffff"/></g><g opacity="0.55"><path d="M 217.28 404 h 55.44 v 38.28 h 38.28 v 55.44 h -38.28 v 38.28 h -55.44 v -38.28 h -38.28 v -55.44 h 38.28 z" fill="#000" stroke="#ffffff" stroke-width="2.5"/><polygon points="245,414 236,428 254,428" fill="#ffffff"/><polygon points="245,526 236,512 254,512" fill="#ffffff"/><polygon points="189,470 203,461 203,479" fill="#ffffff"/><polygon points="301,470 287,461 287,479" fill="#ffffff"/></g><g opacity="0.6"><circle cx="905" cy="430" r="42" fill="#000" stroke="#ffffff" stroke-width="3"/><text x="905" y="439" fill="#ffffff" font-size="30" font-weight="700" text-anchor="middle">A</text></g><text x="905" y="492" fill="#8b95a3" font-size="15" text-anchor="middle">Enter</text><g opacity="0.6"><circle cx="975" cy="495" r="42" fill="#000" stroke="#ffffff" stroke-width="3"/><text x="975" y="504" fill="#ffffff" font-size="30" font-weight="700" text-anchor="middle">B</text></g><text x="975" y="557" fill="#8b95a3" font-size="15" text-anchor="middle">ESC</text><g opacity="0.85"><rect x="695" y="444" width="92" height="40" rx="20" fill="#000" stroke="#e8821e" stroke-width="2"/><text x="741" y="470" fill="#fff" font-size="17" text-anchor="middle">法術</text></g><g opacity="0.85"><rect x="799" y="444" width="92" height="40" rx="20" fill="#000" stroke="#e8821e" stroke-width="2"/><text x="845" y="470" fill="#fff" font-size="17" text-anchor="middle">查看</text></g><text x="150" y="602" fill="#6b7480" font-size="15" text-anchor="start" font-weight="400">左下 D-pad 走地圖｜右下 A/B｜右上 ☰ 系統選單｜情境鍵(法術/查看)讀當前 keymap 浮現</text></svg>