<svg xmlns="http://www.w3.org/2000/svg" width="1180" height="620" viewBox="0 0 1180 620" font-family="'Noto Sans CJK TC','PingFang TC','Microsoft JhengHei','Heiti TC',sans-serif">
<rect width="1180" height="620" rx="26" fill="#14171c"/>
<rect x="40" y="20" width="1100" height="30" rx="6" fill="none"/>
<text x="590" y="42" fill="#8b95a3" font-size="20" text-anchor="middle">② 城鎮 / 城堡選單 — 字母選項</text>
<rect x="150" y="70" width="880" height="480" rx="6" fill="#0a0c10" stroke="#2a2f37"/><rect x="158" y="120" width="864" height="422" fill="#10141c"/><rect x="180" y="164" width="620" height="38" rx="6" fill="#1a2335" stroke="#2e3b55"/><text x="198" y="190" fill="#e6ecf3" font-size="20" text-anchor="start" font-weight="400">A) 接新任務</text><rect x="180" y="210" width="620" height="38" rx="6" fill="#1a2335" stroke="#2e3b55"/><text x="198" y="236" fill="#e6ecf3" font-size="20" text-anchor="start" font-weight="400">B) 租船 (500/週)</text><rect x="180" y="256" width="620" height="38" rx="6" fill="#1a2335" stroke="#2e3b55"/><text x="198" y="282" fill="#e6ecf3" font-size="20" text-anchor="start" font-weight="400">C) 購買情報 (1000)</text><rect x="180" y="302" width="620" height="38" rx="6" fill="#1a2335" stroke="#2e3b55"/><text x="198" y="328" fill="#e6ecf3" font-size="20" text-anchor="start" font-weight="400">D) 造橋 (100)</text><rect x="180" y="348" width="620" height="38" rx="6" fill="#1a2335" stroke="#2e3b55"/><text x="198" y="374" fill="#e6ecf3" font-size="20" text-anchor="start" font-weight="400">E) 買攻城武器 (3000)</text><text x="180" y="156" fill="#ffd479" font-size="18" text-anchor="start" font-weight="400">Town of Hunterville      GP=10K</text><rect x="158" y="78" width="864" height="34" rx="4" fill="#1b2740" stroke="#e8821e"/><text x="170" y="101" fill="#ffd479" font-size="16" text-anchor="start" font-weight="400">城鎮</text><g opacity="0.8"><rect x="974" y="80" width="44" height="36" rx="8" fill="#000" stroke="#ffffff" stroke-width="2"/><rect x="985" y="90" width="22" height="3" rx="1.5" fill="#ffffff"/><rect x="985" y="97" width="22" height="3" rx="1.5" fill="#ffffff"/><rect x="985" y="104" width="22" height="3" rx="1.5" fill="#ffffff"/></g><g opacity="0.95"><circle cx="982" cy="175" r="25" fill="#000" stroke="#e8821e" stroke-width="3"/><text x="982" y="184" fill="#e8821e" font-size="30" font-weight="700" text-anchor="middle">A</text></g><g opacity="0.95"><circle cx="982" cy="243" r="25" fill="#000" stroke="#e8821e" stroke-width="3"/><text x="982" y="252" fill="#e8821e" font-size="30" font-weight="700" text-anchor="middle">B</text></g><g opacity="0.95"><circle cx="982" cy="311" r="25" fill="#000" stroke="#e8821e" stroke-width="3"/><text x="982" y="320" fill="#e8821e" font-size="30" font-weight="700" text-anchor="middle">C</text></g><g opacity="0.95"><circle cx="982" cy="379" r="25" fill="#000" stroke="#e8821e" stroke-width="3"/><text x="982" y="388" fill="#e8821e" font-size="30" font-weight="700" text-anchor="middle">D</text></g><g opacity="0.95"><circle cx="982" cy="447" r="25" fill="#000" stroke="#e8821e" stroke-width="3"/><text x="982" y="456" fill="#e8821e" font-size="30" font-weight="700" text-anchor="middle">E</text></g><g opacity="0.6"><circle cx="245" cy="470" r="40" fill="#000" stroke="#ffffff" stroke-width="3"/><text x="245" y="479" fill="#ffffff" font-size="30" font-weight="700" text-anchor="middle">B</text></g><text x="245" y="530" fill="#8b95a3" font-size="15" text-anchor="middle">返回</text><text x="150" y="602" fill="#6b7480" font-size="15" text-anchor="start" font-weight="400">選單項目可直接點那一行 = 送該字母｜右側情境快捷列同步浮現該畫面有效字母</text></svg>