<svg xmlns="http://www.w3.org/2000/svg" width="1180" height="620" viewBox="0 0 1180 620" font-family="'Noto Sans CJK TC','PingFang TC','Microsoft JhengHei','Heiti TC',sans-serif">
<rect width="1180" height="620" rx="26" fill="#14171c"/>
<rect x="40" y="20" width="1100" height="30" rx="6" fill="none"/>
<text x="590" y="42" fill="#8b95a3" font-size="20" text-anchor="middle">③ 戰鬥 — 走位 / 動作</text>
<rect x="150" y="70" width="880" height="480" rx="6" fill="#0a0c10" stroke="#2a2f37"/><rect x="158" y="120" width="864" height="422" fill="#3a7a3f"/><rect x="210" y="160" width="64" height="54" fill="none" stroke="#2c5e31" stroke-width="1"/><rect x="280" y="160" width="64" height="54" fill="none" stroke="#2c5e31" stroke-width="1"/><rect x="350" y="160" width="64" height="54" fill="none" stroke="#2c5e31" stroke-width="1"/><rect x="420" y="160" width="64" height="54" fill="none" stroke="#2c5e31" stroke-width="1"/><rect x="490" y="160" width="64" height="54" fill="none" stroke="#2c5e31" stroke-width="1"/><rect x="560" y="160" width="64" height="54" fill="none" stroke="#2c5e31" stroke-width="1"/><rect x="630" y="160" width="64" height="54" fill="none" stroke="#2c5e31" stroke-width="1"/><rect x="700" y="160" width="64" height="54" fill="none" stroke="#2c5e31" stroke-width="1"/><rect x="210" y="220" width="64" height="54" fill="none" stroke="#2c5e31" stroke-width="1"/><rect x="280" y="220" width="64" height="54" fill="none" stroke="#2c5e31" stroke-width="1"/><rect x="350" y="220" width="64" height="54" fill="none" stroke="#2c5e31" stroke-width="1"/><rect x="420" y="220" width="64" height="54" fill="none" stroke="#2c5e31" stroke-width="1"/><rect x="490" y="220" width="64" height="54" fill="none" stroke="#2c5e31" stroke-width="1"/><rect x="560" y="220" width="64" height="54" fill="none" stroke="#2c5e31" stroke-width="1"/><rect x="630" y="220" width="64" height="54" fill="none" stroke="#2c5e31" stroke-width="1"/><rect x="700" y="220" width="64" height="54" fill="none" stroke="#2c5e31" stroke-width="1"/><rect x="210" y="280" width="64" height="54" fill="none" stroke="#2c5e31" stroke-width="1"/><rect x="280" y="280" width="64" height="54" fill="none" stroke="#2c5e31" stroke-width="1"/><rect x="350" y="280" width="64" height="54" fill="none" stroke="#2c5e31" stroke-width="1"/><rect x="420" y="280" width="64" height="54" fill="none" stroke="#2c5e31" stroke-width="1"/><rect x="490" y="280" width="64" height="54" fill="none" stroke="#2c5e31" stroke-width="1"/><rect x="560" y="280" width="64" height="54" fill="none" stroke="#2c5e31" stroke-width="1"/><rect x="630" y="280" width="64" height="54" fill="none" stroke="#2c5e31" stroke-width="1"/><rect x="700" y="280" width="64" height="54" fill="none" stroke="#2c5e31" stroke-width="1"/><rect x="210" y="340" width="64" height="54" fill="none" stroke="#2c5e31" stroke-width="1"/><rect x="280" y="340" width="64" height="54" fill="none" stroke="#2c5e31" stroke-width="1"/><rect x="350" y="340" width="64" height="54" fill="none" stroke="#2c5e31" stroke-width="1"/><rect x="420" y="340" width="64" height="54" fill="none" stroke="#2c5e31" stroke-width="1"/><rect x="490" y="340" width="64" height="54" fill="none" stroke="#2c5e31" stroke-width="1"/><rect x="560" y="340" width="64" height="54" fill="none" stroke="#2c5e31" stroke-width="1"/><rect x="630" y="340" width="64" height="54" fill="none" stroke="#2c5e31" stroke-width="1"/><rect x="700" y="340" width="64" height="54" fill="none" stroke="#2c5e31" stroke-width="1"/><rect x="210" y="400" width="64" height="54" fill="none" stroke="#2c5e31" stroke-width="1"/><rect x="280" y="400" width="64" height="54" fill="none" stroke="#2c5e31" stroke-width="1"/><rect x="350" y="400" width="64" height="54" fill="none" stroke="#2c5e31" stroke-width="1"/><rect x="420" y="400" width="64" height="54" fill="none" stroke="#2c5e31" stroke-width="1"/><rect x="490" y="400" width="64" height="54" fill="none" stroke="#2c5e31" stroke-width="1"/><rect x="560" y="400" width="64" height="54" fill="none" stroke="#2c5e31" stroke-width="1"/><rect x="630" y="400" width="64" height="54" fill="none" stroke="#2c5e31" stroke-width="1"/><rect x="700" y="400" width="64" height="54" fill="none" stroke="#2c5e31" stroke-width="1"/><circle cx="245" cy="190" r="20" fill="#cf3030"/><circle cx="910" cy="400" r="20" fill="#3050cf"/><rect x="158" y="78" width="864" height="34" rx="4" fill="#1b2740" stroke="#e8821e"/><text x="170" y="101" fill="#ffd479" font-size="16" text-anchor="start" font-weight="400">戰鬥</text><g opacity="0.8"><rect x="974" y="80" width="44" height="36" rx="8" fill="#000" stroke="#ffffff" stroke-width="2"/><rect x="985" y="90" width="22" height="3" rx="1.5" fill="#ffffff"/><rect x="985" y="97" width="22" height="3" rx="1.5" fill="#ffffff"/><rect x="985" y="104" width="22" height="3" rx="1.5" fill="#ffffff"/></g><g opacity="0.55"><path d="M 218.96 398 h 52.08 v 35.96 h 35.96 v 52.08 h -35.96 v 35.96 h -52.08 v -35.96 h -35.96 v -52.08 h 35.96 z" fill="#000" stroke="#ffffff" stroke-width="2.5"/><polygon points="245,408 236,422 254,422" fill="#ffffff"/><polygon points="245,512 236,498 254,498" fill="#ffffff"/><polygon points="193,460 207,451 207,469" fill="#ffffff"/><polygon points="297,460 283,451 283,469" fill="#ffffff"/></g><g opacity="0.6"><circle cx="940" cy="430" r="42" fill="#000" stroke="#ffffff" stroke-width="3"/><text x="940" y="439" fill="#ffffff" font-size="30" font-weight="700" text-anchor="middle">A</text></g><text x="940" y="492" fill="#8b95a3" font-size="15" text-anchor="middle">攻擊/確認</text><g opacity="0.6"><circle cx="1015" cy="488" r="42" fill="#000" stroke="#ffffff" stroke-width="3"/><text x="1015" y="497" fill="#ffffff" font-size="30" font-weight="700" text-anchor="middle">B</text></g><text x="1015" y="550" fill="#8b95a3" font-size="15" text-anchor="middle">取消</text><g opacity="0.85"><rect x="634" y="482" width="100" height="40" rx="20" fill="#000" stroke="#e8821e" stroke-width="2"/><text x="684" y="508" fill="#fff" font-size="17" text-anchor="middle">用魔法 U</text></g><g opacity="0.85"><rect x="746" y="482" width="92" height="40" rx="20" fill="#000" stroke="#e8821e" stroke-width="2"/><text x="792" y="508" fill="#fff" font-size="17" text-anchor="middle">等待 W</text></g><text x="150" y="602" fill="#6b7480" font-size="15" text-anchor="start" font-weight="400">D-pad 選格/走位｜A 確認攻擊｜B 取消｜戰鬥動作(用魔法/等待)由 keymap 決定</text></svg>