<svg xmlns="http://www.w3.org/2000/svg" width="1180" height="620" viewBox="0 0 1180 620" font-family="'Noto Sans CJK TC','PingFang TC','Microsoft JhengHei','Heiti TC',sans-serif">
<rect width="1180" height="620" rx="26" fill="#14171c"/>
<rect x="40" y="20" width="1100" height="30" rx="6" fill="none"/>
<text x="590" y="42" fill="#8b95a3" font-size="20" text-anchor="middle">④ 招募 — 數字輸入</text>
<rect x="150" y="70" width="880" height="480" rx="6" fill="#0a0c10" stroke="#2a2f37"/><rect x="158" y="120" width="864" height="422" fill="#10141c"/><text x="590" y="190" fill="#e6ecf3" font-size="22" text-anchor="middle" font-weight="400">Forest — 254 Gnomes available</text><text x="590" y="225" fill="#9fb0c4" font-size="18" text-anchor="middle" font-weight="400">Recruit how many?</text><g opacity="0.95"><circle cx="410" cy="320" r="38" fill="#000" stroke="#fff" stroke-width="3"/><text x="410" y="329" fill="#fff" font-size="30" font-weight="700" text-anchor="middle">−</text></g><rect x="480" y="284" width="220" height="72" rx="10" fill="#0a0c10" stroke="#e8821e" stroke-width="2"/><text x="590" y="333" fill="#fff" font-size="40" text-anchor="middle" font-weight="700">123</text><g opacity="0.95"><circle cx="770" cy="320" r="38" fill="#000" stroke="#fff" stroke-width="3"/><text x="770" y="329" fill="#fff" font-size="30" font-weight="700" text-anchor="middle">+</text></g><g opacity="0.85"><rect x="440" y="390" width="120" height="40" rx="20" fill="#000" stroke="#5a6677" stroke-width="2"/><text x="500" y="416" fill="#fff" font-size="17" text-anchor="middle">最大</text></g><g opacity="0.85"><rect x="620" y="390" width="120" height="40" rx="20" fill="#3a2a10" stroke="#e8821e" stroke-width="2"/><text x="680" y="416" fill="#fff" font-size="17" text-anchor="middle">OK (Enter)</text></g><g opacity="0.6"><circle cx="1015" cy="495" r="42" fill="#000" stroke="#ffffff" stroke-width="3"/><text x="1015" y="504" fill="#ffffff" font-size="30" font-weight="700" text-anchor="middle">B</text></g><text x="1015" y="557" fill="#8b95a3" font-size="15" text-anchor="middle">取消</text><text x="150" y="602" fill="#6b7480" font-size="15" text-anchor="start" font-weight="400">數量型輸入浮出步進器 [−] [數值] [+] + 最大/OK,免叫全鍵盤</text></svg>