<svg xmlns="http://www.w3.org/2000/svg" width="1180" height="620" viewBox="0 0 1180 620" font-family="'Noto Sans CJK TC','PingFang TC','Microsoft JhengHei','Heiti TC',sans-serif">
<rect width="1180" height="620" rx="26" fill="#14171c"/>
<rect x="40" y="20" width="1100" height="30" rx="6" fill="none"/>
<text x="590" y="42" fill="#8b95a3" font-size="20" text-anchor="middle">⑤ 角色命名 — Android 系統鍵盤 (IME)</text>
<rect x="150" y="70" width="880" height="480" rx="6" fill="#0a0c10" stroke="#2a2f37"/><rect x="158" y="120" width="864" height="422" fill="#10141c"/><text x="190" y="180" fill="#9fb0c4" font-size="22" text-anchor="start" font-weight="400">Name:</text><rect x="280" y="154" width="300" height="40" rx="4" fill="#0a0c10" stroke="#e8821e"/><text x="295" y="182" fill="#fff" font-size="24" text-anchor="start" font-weight="400">Anr_</text><rect x="190" y="230" width="780" height="240" rx="10" fill="#1b1f27"/><rect x="210" y="250" width="60" height="52" rx="7" fill="#2b323d"/><text x="240" y="284" fill="#fff" font-size="22" text-anchor="middle" font-weight="400">q</text><rect x="282" y="250" width="60" height="52" rx="7" fill="#2b323d"/><text x="312" y="284" fill="#fff" font-size="22" text-anchor="middle" font-weight="400">w</text><rect x="354" y="250" width="60" height="52" rx="7" fill="#2b323d"/><text x="384" y="284" fill="#fff" font-size="22" text-anchor="middle" font-weight="400">e</text><rect x="426" y="250" width="60" height="52" rx="7" fill="#2b323d"/><text x="456" y="284" fill="#fff" font-size="22" text-anchor="middle" font-weight="400">r</text><rect x="498" y="250" width="60" height="52" rx="7" fill="#2b323d"/><text x="528" y="284" fill="#fff" font-size="22" text-anchor="middle" font-weight="400">t</text><rect x="570" y="250" width="60" height="52" rx="7" fill="#2b323d"/><text x="600" y="284" fill="#fff" font-size="22" text-anchor="middle" font-weight="400">y</text><rect x="642" y="250" width="60" height="52" rx="7" fill="#2b323d"/><text x="672" y="284" fill="#fff" font-size="22" text-anchor="middle" font-weight="400">u</text><rect x="714" y="250" width="60" height="52" rx="7" fill="#2b323d"/><text x="744" y="284" fill="#fff" font-size="22" text-anchor="middle" font-weight="400">i</text><rect x="786" y="250" width="60" height="52" rx="7" fill="#2b323d"/><text x="816" y="284" fill="#fff" font-size="22" text-anchor="middle" font-weight="400">o</text><rect x="858" y="250" width="60" height="52" rx="7" fill="#2b323d"/><text x="888" y="284" fill="#fff" font-size="22" text-anchor="middle" font-weight="400">p</text><rect x="232" y="314" width="60" height="52" rx="7" fill="#2b323d"/><text x="262" y="348" fill="#fff" font-size="22" text-anchor="middle" font-weight="400">a</text><rect x="304" y="314" width="60" height="52" rx="7" fill="#2b323d"/><text x="334" y="348" fill="#fff" font-size="22" text-anchor="middle" font-weight="400">s</text><rect x="376" y="314" width="60" height="52" rx="7" fill="#2b323d"/><text x="406" y="348" fill="#fff" font-size="22" text-anchor="middle" font-weight="400">d</text><rect x="448" y="314" width="60" height="52" rx="7" fill="#2b323d"/><text x="478" y="348" fill="#fff" font-size="22" text-anchor="middle" font-weight="400">f</text><rect x="520" y="314" width="60" height="52" rx="7" fill="#2b323d"/><text x="550" y="348" fill="#fff" font-size="22" text-anchor="middle" font-weight="400">g</text><rect x="592" y="314" width="60" height="52" rx="7" fill="#2b323d"/><text x="622" y="348" fill="#fff" font-size="22" text-anchor="middle" font-weight="400">h</text><rect x="664" y="314" width="60" height="52" rx="7" fill="#2b323d"/><text x="694" y="348" fill="#fff" font-size="22" text-anchor="middle" font-weight="400">j</text><rect x="736" y="314" width="60" height="52" rx="7" fill="#2b323d"/><text x="766" y="348" fill="#fff" font-size="22" text-anchor="middle" font-weight="400">k</text><rect x="808" y="314" width="60" height="52" rx="7" fill="#2b323d"/><text x="838" y="348" fill="#fff" font-size="22" text-anchor="middle" font-weight="400">l</text><rect x="254" y="378" width="60" height="52" rx="7" fill="#2b323d"/><text x="284" y="412" fill="#fff" font-size="22" text-anchor="middle" font-weight="400">z</text><rect x="326" y="378" width="60" height="52" rx="7" fill="#2b323d"/><text x="356" y="412" fill="#fff" font-size="22" text-anchor="middle" font-weight="400">x</text><rect x="398" y="378" width="60" height="52" rx="7" fill="#2b323d"/><text x="428" y="412" fill="#fff" font-size="22" text-anchor="middle" font-weight="400">c</text><rect x="470" y="378" width="60" height="52" rx="7" fill="#2b323d"/><text x="500" y="412" fill="#fff" font-size="22" text-anchor="middle" font-weight="400">v</text><rect x="542" y="378" width="60" height="52" rx="7" fill="#2b323d"/><text x="572" y="412" fill="#fff" font-size="22" text-anchor="middle" font-weight="400">b</text><rect x="614" y="378" width="60" height="52" rx="7" fill="#2b323d"/><text x="644" y="412" fill="#fff" font-size="22" text-anchor="middle" font-weight="400">n</text><rect x="686" y="378" width="60" height="52" rx="7" fill="#2b323d"/><text x="716" y="412" fill="#fff" font-size="22" text-anchor="middle" font-weight="400">m</text><text x="590" y="460" fill="#8b95a3" font-size="15" text-anchor="middle" font-weight="400">系統 IME｜SDL_StartTextInput()｜送回命名緩衝</text><text x="150" y="602" fill="#6b7480" font-size="15" text-anchor="start" font-weight="400">命名走 Android 原生輸入法,不自製鍵盤</text></svg>