<svg xmlns="http://www.w3.org/2000/svg" width="1180" height="620" viewBox="0 0 1180 620" font-family="'Noto Sans CJK TC','PingFang TC','Microsoft JhengHei','Heiti TC',sans-serif">
<rect width="1180" height="620" rx="26" fill="#14171c"/>
<rect x="40" y="20" width="1100" height="30" rx="6" fill="none"/>
<text x="590" y="42" fill="#8b95a3" font-size="20" text-anchor="middle">⑥ 選角 — 直接點立繪 / 按鈕</text>
<rect x="150" y="70" width="880" height="480" rx="6" fill="#0a0c10" stroke="#2a2f37"/><rect x="158" y="120" width="864" height="422" fill="#2a6cc4"/><rect x="220" y="180" width="150" height="220" rx="8" fill="#7c5a3a" stroke="#fff" stroke-width="2"/><circle cx="295" cy="260" r="34" fill="#e8c9a0"/><g opacity="0.95"><rect x="235" y="350" width="120" height="40" rx="20" fill="#000" stroke="#fff" stroke-width="2"/><text x="295" y="376" fill="#fff" font-size="17" text-anchor="middle">A 武士</text></g><rect x="420" y="180" width="150" height="220" rx="8" fill="#3a7c4a" stroke="#fff" stroke-width="2"/><circle cx="495" cy="260" r="34" fill="#e8c9a0"/><g opacity="0.95"><rect x="435" y="350" width="120" height="40" rx="20" fill="#000" stroke="#fff" stroke-width="2"/><text x="495" y="376" fill="#fff" font-size="17" text-anchor="middle">B 遊俠</text></g><rect x="620" y="180" width="150" height="220" rx="8" fill="#7c3a3a" stroke="#fff" stroke-width="2"/><circle cx="695" cy="260" r="34" fill="#e8c9a0"/><g opacity="0.95"><rect x="635" y="350" width="120" height="40" rx="20" fill="#000" stroke="#fff" stroke-width="2"/><text x="695" y="376" fill="#fff" font-size="17" text-anchor="middle">C 蠻俠</text></g><rect x="820" y="180" width="150" height="220" rx="8" fill="#7c3a6c" stroke="#fff" stroke-width="2"/><circle cx="895" cy="260" r="34" fill="#e8c9a0"/><g opacity="0.95"><rect x="835" y="350" width="120" height="40" rx="20" fill="#000" stroke="#fff" stroke-width="2"/><text x="895" y="376" fill="#fff" font-size="17" text-anchor="middle">D 女巫師</text></g><rect x="158" y="78" width="864" height="34" rx="4" fill="#1b2740" stroke="#e8821e"/><text x="170" y="101" fill="#ffd479" font-size="16" text-anchor="start" font-weight="400">Select Character and Press Start</text><g opacity="0.8"><rect x="974" y="80" width="44" height="36" rx="8" fill="#000" stroke="#ffffff" stroke-width="2"/><rect x="985" y="90" width="22" height="3" rx="1.5" fill="#ffffff"/><rect x="985" y="97" width="22" height="3" rx="1.5" fill="#ffffff"/><rect x="985" y="104" width="22" height="3" rx="1.5" fill="#ffffff"/></g><g opacity="0.85"><rect x="520" y="504" width="140" height="40" rx="20" fill="#000" stroke="#5a6677" stroke-width="2"/><text x="590" y="530" fill="#fff" font-size="17" text-anchor="middle">L 讀取存檔</text></g><text x="150" y="602" fill="#6b7480" font-size="15" text-anchor="start" font-weight="400">直接點職業立繪或下方按鈕 = 選定;讀檔按鈕對應 L 鍵</text></svg>